<svg width="12" height="12" viewBox="0 0 12 12" fill="none" xmlns="http://www.w3.org/2000/svg">
    <path fill-rule="evenodd" clip-rule="evenodd" d="M11.0001 6.83332H6.83342V11C6.83342 11.4583 6.45842 11.8333 6.00008 11.8333C5.54175 11.8333 5.16675 11.4583 5.16675 11V6.83332H1.00008C0.541748 6.83332 0.166748 6.45832 0.166748 5.99999C0.166748 5.54166 0.541748 5.16666 1.00008 5.16666H5.16675V0.99999C5.16675 0.541657 5.54175 0.166656 6.00008 0.166656C6.45842 0.166656 6.83342 0.541657 6.83342 0.99999V5.16666H11.0001C11.4584 5.16666 11.8334 5.54166 11.8334 5.99999C11.8334 6.45832 11.4584 6.83332 11.0001 6.83332Z" fill="#969696"/>
</svg>
