<svg width="20" height="20" viewBox="0 0 20 20" fill="none" xmlns="http://www.w3.org/2000/svg">
<path d="M18.3332 3.33332C18.3332 2.41666 17.5832 1.66666 16.6665 1.66666H3.33317C2.4165 1.66666 1.6665 2.41666 1.6665 3.33332V13.3333C1.6665 14.25 2.4165 15 3.33317 15H14.9998L18.3332 18.3333V3.33332ZM13.3332 9.16666H10.8332V11.6667C10.8332 12.125 10.4582 12.5 9.99984 12.5C9.5415 12.5 9.1665 12.125 9.1665 11.6667V9.16666H6.6665C6.20817 9.16666 5.83317 8.79166 5.83317 8.33332C5.83317 7.87499 6.20817 7.49999 6.6665 7.49999H9.1665V4.99999C9.1665 4.54166 9.5415 4.16666 9.99984 4.16666C10.4582 4.16666 10.8332 4.54166 10.8332 4.99999V7.49999H13.3332C13.7915 7.49999 14.1665 7.87499 14.1665 8.33332C14.1665 8.79166 13.7915 9.16666 13.3332 9.16666Z" fill="#969696"/>
</svg>
