<svg width="20" height="20" viewBox="0 0 20 20" fill="none" xmlns="http://www.w3.org/2000/svg">
<path fill-rule="evenodd" clip-rule="evenodd" d="M16.6665 1.66666H6.6665C5.74984 1.66666 4.99984 2.41666 4.99984 3.33332V13.3333C4.99984 14.25 5.74984 15 6.6665 15H16.6665C17.5832 15 18.3332 14.25 18.3332 13.3333V3.33332C18.3332 2.41666 17.5832 1.66666 16.6665 1.66666ZM9.58317 7.91666C9.58317 8.60832 9.02484 9.16666 8.33317 9.16666H7.49984V10.2083C7.49984 10.55 7.2165 10.8333 6.87484 10.8333C6.53317 10.8333 6.24984 10.55 6.24984 10.2083V6.66666C6.24984 6.20832 6.62484 5.83332 7.08317 5.83332H8.33317C9.02484 5.83332 9.58317 6.39166 9.58317 7.08332V7.91666ZM13.7498 9.58332C13.7498 10.275 13.1915 10.8333 12.4998 10.8333H10.8332C10.5998 10.8333 10.4165 10.65 10.4165 10.4167V6.24999C10.4165 6.01666 10.5998 5.83332 10.8332 5.83332H12.4998C13.1915 5.83332 13.7498 6.39166 13.7498 7.08332V9.58332ZM17.0832 6.45832C17.0832 6.79999 16.7998 7.08332 16.4582 7.08332H15.8332V7.91666H16.4582C16.7998 7.91666 17.0832 8.19999 17.0832 8.54166C17.0832 8.88332 16.7998 9.16666 16.4582 9.16666H15.8332V10.2083C15.8332 10.55 15.5498 10.8333 15.2082 10.8333C14.8665 10.8333 14.5832 10.55 14.5832 10.2083V6.66666C14.5832 6.20832 14.9582 5.83332 15.4165 5.83332H16.4582C16.7998 5.83332 17.0832 6.11666 17.0832 6.45832ZM7.49984 7.91666H8.33317V7.08332H7.49984V7.91666ZM2.49984 4.99999C2.0415 4.99999 1.6665 5.37499 1.6665 5.83332V16.6667C1.6665 17.5833 2.4165 18.3333 3.33317 18.3333H14.1665C14.6248 18.3333 14.9998 17.9583 14.9998 17.5C14.9998 17.0417 14.6248 16.6667 14.1665 16.6667H4.1665C3.70817 16.6667 3.33317 16.2917 3.33317 15.8333V5.83332C3.33317 5.37499 2.95817 4.99999 2.49984 4.99999ZM11.6665 9.58332H12.4998V7.08332H11.6665V9.58332Z" fill="#969696"/>
</svg>
