<svg width="20" height="20" viewBox="0 0 20 20" fill="none" xmlns="http://www.w3.org/2000/svg">
<path fill-rule="evenodd" clip-rule="evenodd" d="M9.99984 1.66666C5.39984 1.66666 1.6665 5.39999 1.6665 9.99999C1.6665 14.6 5.39984 18.3333 9.99984 18.3333C14.5998 18.3333 18.3332 14.6 18.3332 9.99999C18.3332 5.39999 14.5998 1.66666 9.99984 1.66666ZM7.7415 13.575L4.74984 10.5833C4.42484 10.2583 4.42484 9.73332 4.74984 9.40832C5.07484 9.08332 5.59984 9.08332 5.92484 9.40832L8.33317 11.8083L14.0665 6.07499C14.3915 5.74999 14.9165 5.74999 15.2415 6.07499C15.5665 6.39999 15.5665 6.92499 15.2415 7.24999L8.9165 13.575C8.59984 13.9 8.0665 13.9 7.7415 13.575Z" fill="#969696"/>
</svg>
