<svg width="20" height="20" viewBox="0 0 20 20" fill="none" xmlns="http://www.w3.org/2000/svg">
<path fill-rule="evenodd" clip-rule="evenodd" d="M6.89228 12.4687C6.73394 12.4687 6.58394 12.4437 6.45894 12.402C6.32561 12.352 6.21728 12.2937 6.12561 12.202C6.03394 12.1187 5.95894 12.0187 5.90894 11.8937C5.85894 11.777 5.83394 11.6437 5.83394 11.502H4.75061C4.75061 11.802 4.80894 12.0687 4.92561 12.2937C5.04228 12.5187 5.20061 12.7103 5.39228 12.8687C5.59228 13.0187 5.81728 13.1353 6.07561 13.2103C6.32561 13.2937 6.59228 13.3353 6.87561 13.3353C7.18394 13.3353 7.47561 13.2937 7.73394 13.2103C8.00061 13.127 8.23394 13.002 8.42561 12.8437C8.61728 12.6853 8.77561 12.4853 8.88394 12.2437C8.99228 12.002 9.05061 11.7353 9.05061 11.4353C9.05061 11.277 9.03394 11.1187 8.99228 10.9687C8.95061 10.8187 8.89228 10.677 8.80061 10.5437C8.71728 10.4103 8.60061 10.2937 8.46728 10.1853C8.32561 10.077 8.15894 9.99367 7.95894 9.927C8.12561 9.852 8.26728 9.76033 8.39228 9.652C8.51728 9.54367 8.61728 9.427 8.70061 9.302C8.78394 9.177 8.84228 9.052 8.88394 8.91867C8.92561 8.78533 8.94228 8.652 8.94228 8.51867C8.94228 8.21867 8.89228 7.952 8.79228 7.71867C8.69228 7.48533 8.55061 7.29367 8.36728 7.14367C8.20061 6.98533 7.97561 6.86867 7.72561 6.78533C7.46728 6.71033 7.18394 6.66867 6.87561 6.66867C6.57561 6.66867 6.30061 6.71033 6.04228 6.802C5.79228 6.89367 5.56728 7.01867 5.38394 7.177C5.20894 7.33533 5.06728 7.51867 4.95894 7.73533C4.85894 7.952 4.80894 8.18533 4.80894 8.44367H5.89228C5.89228 8.302 5.91728 8.177 5.96728 8.06867C6.01728 7.96033 6.08394 7.86033 6.17561 7.78533C6.26728 7.71033 6.36728 7.64367 6.49228 7.602C6.61728 7.56033 6.74228 7.53533 6.89228 7.53533C7.22561 7.53533 7.47561 7.61867 7.63394 7.79367C7.79228 7.96033 7.87561 8.202 7.87561 8.51033C7.87561 8.66033 7.85061 8.79367 7.80894 8.91867C7.76728 9.04367 7.69228 9.14367 7.60061 9.227C7.50894 9.31033 7.39228 9.377 7.25894 9.427C7.12561 9.477 6.95894 9.502 6.77561 9.502H6.13394V10.3603H6.77561C6.95894 10.3603 7.12561 10.377 7.27561 10.4187C7.42561 10.4603 7.55061 10.527 7.65061 10.6103C7.75061 10.702 7.83394 10.8103 7.89228 10.9437C7.95061 11.077 7.97561 11.2353 7.97561 11.4187C7.97561 11.7603 7.87561 12.0187 7.68394 12.1937C7.49228 12.3853 7.22561 12.4687 6.89228 12.4687ZM14.6423 8.53533C14.4923 8.14367 14.2839 7.81033 14.0173 7.53533C13.7506 7.26033 13.4339 7.04367 13.0673 6.89367C12.7089 6.74367 12.3006 6.66867 11.8506 6.66867H9.88394V13.3353H11.8006C12.2589 13.3353 12.6839 13.2603 13.0589 13.1103C13.4339 12.9603 13.7589 12.752 14.0256 12.477C14.2923 12.202 14.5006 11.8687 14.6423 11.4853C14.7839 11.0937 14.8589 10.6603 14.8589 10.177V9.84367C14.8589 9.36033 14.7839 8.927 14.6423 8.53533ZM13.7006 10.1687C13.7006 10.5187 13.6589 10.827 13.5839 11.1103C13.5006 11.3853 13.3839 11.627 13.2256 11.8187C13.0673 12.0103 12.8673 12.1603 12.6339 12.2603C12.3923 12.3603 12.1173 12.4103 11.8089 12.4103H11.0506V7.59367H11.8589C12.4589 7.59367 12.9173 7.78533 13.2256 8.16867C13.5423 8.552 13.7006 9.102 13.7006 9.827V10.1687ZM12.5089 3.202L13.6173 2.09367C16.1923 3.31033 18.0673 5.73533 18.5256 8.64367C18.5756 8.98533 18.8923 9.21867 19.2423 9.16033C19.5839 9.11033 19.8173 8.78533 19.7589 8.44367C19.2589 5.26867 17.2923 2.602 14.5589 1.152C13.1673 0.410334 11.3673 -0.106332 9.33394 0.0186675L12.5089 3.202ZM7.25894 16.7937L6.15061 17.902C3.57561 16.6853 1.70061 14.2603 1.24228 11.352C1.19228 11.0103 0.875609 10.777 0.525609 10.8353C0.183943 10.8853 -0.0493908 11.2103 0.00894256 11.552C0.508943 14.727 2.47561 17.3937 5.20894 18.8437C6.60061 19.5853 8.40061 20.102 10.4339 19.977L7.25894 16.7937Z" fill="#969696"/>
</svg>
