<svg width="18" height="18" viewBox="0 0 18 18" fill="none" xmlns="http://www.w3.org/2000/svg">
    <path fill-rule="evenodd" clip-rule="evenodd" d="M5.8335 14C4.91683 14 4.17516 14.75 4.17516 15.6667C4.17516 16.5833 4.91683 17.3333 5.8335 17.3333C6.75016 17.3333 7.50016 16.5833 7.50016 15.6667C7.50016 14.75 6.75016 14 5.8335 14ZM0.833496 1.49999C0.833496 1.95832 1.2085 2.33332 1.66683 2.33332H2.50016L5.50016 8.65832L4.37516 10.6917C3.76683 11.8083 4.56683 13.1667 5.8335 13.1667H15.0002C15.4585 13.1667 15.8335 12.7917 15.8335 12.3333C15.8335 11.875 15.4585 11.5 15.0002 11.5H5.8335L6.75016 9.83332H12.9585C13.5835 9.83332 14.1335 9.49166 14.4168 8.97499L17.4002 3.56666C17.7085 3.01666 17.3085 2.33332 16.6752 2.33332H4.34183L3.7835 1.14166C3.65016 0.84999 3.35016 0.666656 3.0335 0.666656H1.66683C1.2085 0.666656 0.833496 1.04166 0.833496 1.49999ZM14.1668 14C13.2502 14 12.5085 14.75 12.5085 15.6667C12.5085 16.5833 13.2502 17.3333 14.1668 17.3333C15.0835 17.3333 15.8335 16.5833 15.8335 15.6667C15.8335 14.75 15.0835 14 14.1668 14Z" fill="white"/>
</svg>
